<?xml version="1.0" encoding="utf-8"?>
<!-- Generator: Adobe Illustrator 23.0.3, SVG Export Plug-In . SVG Version: 6.00 Build 0)  -->
<svg version="1.1" xmlns="http://www.w3.org/2000/svg" xmlns:xlink="http://www.w3.org/1999/xlink" x="0px" y="0px"
	 viewBox="0 0 256 256" style="enable-background:new 0 0 256 256;" xml:space="preserve">
<style type="text/css">
	.st0{fill:#878787;}
	.st1{fill:#F2E1D6;}
	.st2{fill:#FFFFFF;}
	.st3{fill:#F0C020;}
	.st4{fill:#F9E5AF;}
	.st5{fill:#72C1E8;}
	.st6{fill:#C5E5FF;}
	.st7{fill:#13BF6D;}
	.st8{fill:#76FFBA;}
	.st9{fill:#EFEFEF;}
	.st10{fill:#FC5D3D;}
	.st11{fill:#FFCBC2;}
	.st12{fill:#FFB69F;}
	.st13{fill:#AFAFAF;}
	.st14{fill:#7C7B7A;}
	.st15{fill:#D6C0B4;}
	.st16{fill:#7A7380;}
	.st17{fill:#F0AB20;}
	.st18{fill:#FBE0E2;}
	.st19{fill:#4C4945;}
	.st20{fill:#68B0D4;}
	.st21{fill:#B35034;}
	.st22{fill:#EDAF85;}
	.st23{fill:#139C6D;}
</style>
<g id="Layer_2">
</g>
<g id="Layer_1">
	<g>
		<g>
			<g>
				<path class="st3" d="M225.91,129.059c-27.483,13.426-47.252,37.816-55,68.96c-9.71-4.6-19.96-7.61-30.37-9.01l-1.27-55.91
					h-24.92l-1.27,55.91c-10.41,1.4-20.66,4.41-30.37,9.01c-7.734-31.051-27.414-55.483-55-68.96
					c19.21-26.023,26.196-54.196,19.63-86c30.68-1.41,56.11-11.2,79.47-38.27c20.04,23.23,43.62,36.62,79.47,38.27
					C199.9,73.919,206.14,102.269,225.91,129.059z"/>
			</g>
			<g>
				<path class="st4" d="M87.379,184.139c-8.406-23.41-23.953-43.333-45.213-56.744c-1.155-0.729-1.512-2.249-0.801-3.416
					c13.472-22.102,18.918-45.695,16.189-70.685c-0.148-1.357,0.821-2.583,2.177-2.752c26.087-3.248,46.844-13.235,65.323-31.432
					c0.973-0.958,2.535-0.958,3.508,0c18.476,18.197,39.236,28.185,65.335,31.432c1.354,0.168,2.322,1.391,2.177,2.747
					c-2.676,25,2.823,48.742,16.185,70.688c0.71,1.167,0.353,2.687-0.802,3.415c-9.989,6.301-18.859,14.14-26.363,23.299
					c-0.628,0.768-1.247,1.543-1.854,2.328c-0.846,1.092-2.414,1.293-3.508,0.447c-1.092-0.845-1.292-2.415-0.447-3.507
					c0.636-0.821,1.282-1.633,1.94-2.437c7.329-8.946,15.903-16.686,25.515-23.037c-12.542-21.477-18.006-44.72-15.873-69.303
					c-25.308-3.582-45.776-13.429-64.059-30.813c-18.284,17.384-38.748,27.229-64.042,30.812
					c2.177,24.358-3.147,47.534-15.883,69.307c20.806,13.747,35.835,33.348,44.353,55.668c3.457-1.11,6.982-2.063,10.512-2.841
					c1.35-0.299,2.682,0.555,2.979,1.903c0.297,1.348-0.555,2.682-1.903,2.979c-4.136,0.912-8.267,2.075-12.278,3.457
					C89.257,186.102,87.842,185.431,87.379,184.139z M163.072,185.658c-4.009-1.381-8.14-2.544-12.276-3.457
					c-1.349-0.297-2.2-1.631-1.903-2.98c0.298-1.348,1.632-2.202,2.979-1.903c3.53,0.778,7.055,1.731,10.51,2.84
					c2.943-7.71,6.642-15.052,11.011-21.854c0.746-1.163,2.291-1.499,3.455-0.752c1.161,0.746,1.498,2.293,0.752,3.455
					c-4.597,7.156-8.419,14.938-11.36,23.132C165.777,185.428,164.364,186.102,163.072,185.658z"/>
			</g>
			<g>
				<path class="st10" d="M140.54,189.009l-1.27-55.91h-24.92l-1.27,55.91c-0.012,0.544-1.07,46.826-1.07,47.37
					c0,8.15,6.61,14.79,14.8,14.79c8.31,0,14.99-6.83,14.8-15.14L140.54,189.009z"/>
			</g>
			<g>
				<path class="st11" d="M126.81,243.669c-3.588,0-7.3-2.815-7.3-7.526l1.824-80.276c0.03-1.381,1.176-2.476,2.556-2.443
					c1.381,0.032,2.474,1.176,2.442,2.556l-1.823,80.219c0.001,1.679,1.193,2.469,2.301,2.469c1.381,0,2.5,1.119,2.5,2.5
					S128.191,243.669,126.81,243.669z M124.062,148.427c-0.02,0-0.038,0-0.058,0c-1.381-0.032-2.475-1.176-2.442-2.557l0.064-2.828
					c0.031-1.38,1.158-2.463,2.556-2.442c1.381,0.032,2.475,1.176,2.442,2.557l-0.064,2.828
					C126.53,147.345,125.417,148.427,124.062,148.427z"/>
			</g>
			<g>
				<g>
					<path class="st0" d="M101.886,133.1h49.849c2.557,0,4.63-2.073,4.63-4.63v-4.758h10.513v4.755c0,2.557,2.073,4.63,4.63,4.63
						h1.54c5.813,0,10.525-4.712,10.525-10.525V93.452c0-5.813-4.712-10.525-10.525-10.525h-1.54c-2.557,0-4.63,2.073-4.63,4.63
						v4.758h-10.513v-4.758c0-2.557-2.073-4.63-4.63-4.63h-49.849c-2.557,0-4.63,2.073-4.63,4.63v4.758H86.743v-4.758
						c0-2.557-2.073-4.63-4.63-4.63h-1.54c-5.813,0-10.525,4.712-10.525,10.525v29.119c0,5.813,4.712,10.525,10.525,10.525h1.54
						c2.557,0,4.63-2.073,4.63-4.63v-4.755h10.513v4.758C97.256,131.027,99.329,133.1,101.886,133.1z"/>
				</g>
				<g>
					<path class="st13" d="M146.95,126.212h-33.547c-1.381,0-2.5-1.119-2.5-2.5s1.119-2.5,2.5-2.5h31.047V96.259
						c0-1.381,1.119-2.5,2.5-2.5s2.5,1.119,2.5,2.5v27.453C149.45,125.093,148.331,126.212,146.95,126.212z"/>
				</g>
			</g>
		</g>
		<circle cx="130.161" cy="82.929" r="2.5"/>
		<path d="M41.201,231.04v8.2c0,5.89,4.8,10.69,10.699,10.69c5.9,0,10.7-4.8,10.7-10.69v-8.2c0-5.9-4.8-10.7-10.7-10.7
			C46,220.339,41.201,225.139,41.201,231.04z M57.6,231.04v8.2c-0.01,3.13-2.569,5.69-5.7,5.69c-3.14,0-5.689-2.56-5.699-5.69v-8.2
			c0.01-3.14,2.56-5.69,5.699-5.7C55.031,225.35,57.59,227.899,57.6,231.04z"/>
		<path d="M100.65,247.429c0-1.37-1.119-2.5-2.5-2.5h-5.699v-22.09c0-1.874-1.985-3.058-3.62-2.24l-7.721,3.88
			c-1.264,0.643-1.717,2.154-1.109,3.35c0.6,1.2,2.149,1.72,3.359,1.12l4.091-2.06v18.04h-5.7c-1.38,0-2.5,1.13-2.5,2.5
			c0,1.38,1.12,2.5,2.5,2.5H98.15C99.531,249.929,100.65,248.81,100.65,247.429z"/>
		<path d="M5.65,244.929c-1.38,0-2.5,1.13-2.5,2.51c0,1.37,1.12,2.49,2.5,2.49h16.4c1.38,0,2.5-1.12,2.5-2.49
			c0-1.38-1.12-2.51-2.5-2.51h-5.7v-22.09c0-1.859-1.968-3.066-3.62-2.24l-7.72,3.88c-1.229,0.62-1.729,2.12-1.11,3.35
			c0.601,1.2,2.15,1.72,3.36,1.12l4.09-2.06v18.04H5.65z"/>
		<path d="M212.3,249.929c1.38,0,2.5-1.12,2.5-2.5c0-1.37-1.12-2.49-2.5-2.49h-5.7v-22.1c0-1.891-1.997-3.062-3.62-2.23l-7.72,3.87
			c-1.229,0.62-1.729,2.12-1.11,3.35c0.601,1.2,2.15,1.72,3.36,1.12l4.09-2.06v18.05h-5.7c-1.38,0-2.5,1.12-2.5,2.49
			c0,1.38,1.12,2.5,2.5,2.5H212.3z"/>
		<path d="M166.05,249.929c5.9,0,10.7-4.8,10.7-10.69v-8.2c0-5.9-4.8-10.7-10.7-10.7s-10.69,4.8-10.7,10.7v8.2
			C155.36,245.129,160.15,249.929,166.05,249.929z M160.35,231.04c0.01-3.14,2.561-5.7,5.7-5.7s5.69,2.56,5.7,5.7v8.2
			c-0.01,3.13-2.561,5.69-5.7,5.69s-5.69-2.56-5.7-5.69V231.04z"/>
		<path d="M231.451,231.04v8.2c0,5.89,4.8,10.69,10.699,10.69c5.9,0,10.7-4.8,10.7-10.69v-8.2c0-5.9-4.8-10.7-10.7-10.7
			C236.25,220.339,231.451,225.139,231.451,231.04z M236.451,231.04c0.01-3.14,2.569-5.7,5.699-5.7c3.141,0,5.69,2.56,5.7,5.7v8.2
			c-0.01,3.13-2.56,5.69-5.7,5.69c-3.13,0-5.689-2.56-5.699-5.69V231.04z"/>
		<path d="M62.911,157.219c1.06-0.89,1.199-2.47,0.31-3.52c-0.85-1.02-2.5-1.17-3.52-0.32c-1.076,0.906-1.198,2.466-0.311,3.52
			C60.251,157.944,61.82,158.116,62.911,157.219z"/>
		<path d="M26.61,131.31c9.74,4.75,18.54,10.95,26.16,18.43c0.96,0.94,2.601,0.92,3.54-0.03c0.96-0.99,0.95-2.57-0.04-3.54
			c-7.3-7.16-15.649-13.22-24.819-18.02c18.077-25.572,24.35-52.942,18.89-82.75c30.806-1.927,55.055-12.899,76.47-36.82
			c20.625,23.083,44.49,34.788,76.471,36.82c-5.597,30.442,1.259,57.807,18.89,82.75c-25.52,13.367-44.655,36.377-52.93,66.36
			c-8.403-3.691-17.221-6.248-26.249-7.655l-1.164-51.254h9.902c3.931,0,7.13-3.2,7.13-7.13v-2.257h5.518v2.255
			c0,3.932,3.198,7.13,7.13,7.13h1.541c7.182,0,13.024-5.843,13.024-13.025V93.453c0-7.182-5.843-13.025-13.024-13.025h-1.541
			c-3.931,0-7.129,3.198-7.129,7.13v2.259h-5.519V87.56c0-3.93-3.199-7.13-7.13-7.13h-11.569c-1.38,0-2.5,1.12-2.5,2.5
			c0,1.38,1.12,2.5,2.5,2.5h11.569c1.17,0,2.13,0.96,2.13,2.13v40.91c0,1.17-0.96,2.13-2.13,2.13c-23.958,0-25.882,0-49.84,0
			c-1.18,0-2.13-0.96-2.14-2.13c0-0.837,0-40.905,0-40.91c0.01-1.17,0.96-2.13,2.14-2.13h18.271c1.38,0,2.5-1.12,2.5-2.5
			c0-1.38-1.12-2.5-2.5-2.5H101.89c-3.93,0-7.13,3.2-7.13,7.13v2.256h-5.518v-2.259c0-3.932-3.198-7.13-7.13-7.13h-1.54
			c-7.183,0-13.025,5.843-13.025,13.025v29.119c0,7.182,5.843,13.025,13.025,13.025h1.54c3.932,0,7.13-3.198,7.13-7.13v-2.255h5.518
			v2.257c0,3.93,3.2,7.13,7.13,7.13h9.902l-1.165,51.253c-9.024,1.407-17.852,3.965-26.256,7.656
			c-3.271-11.86-8.311-22.85-14.98-32.64c-0.75-1.1-2.37-1.41-3.47-0.66c-1.136,0.785-1.436,2.306-0.66,3.48
			c6.88,10.1,11.93,21.52,15.021,33.93c0.375,1.523,2.058,2.338,3.5,1.66c8.511-4.029,17.492-6.823,26.73-8.343
			c-1.065,46.838-1.001,43.807-1.001,44.443c0,9.53,7.76,17.29,17.3,17.29c9.098,0,17.3-7.181,17.3-17.66l-0.27-12.03
			c-0.04-1.37-1.2-2.46-2.56-2.45c-1.381,0.04-2.471,1.18-2.44,2.56c0.002,0.077,0.27,11.973,0.27,12.05
			c0,7.319-5.773,12.52-12.3,12.53c-6.77-0.01-12.29-5.53-12.3-12.29l2.28-100.78h20.029l1.561,68.49
			c0.029,1.281,1.06,2.45,2.56,2.45c1.37-0.03,2.471-1.18,2.44-2.56c0,0,0-0.01,0-0.02l-0.273-12.023
			c9.239,1.519,18.22,4.314,26.733,8.343c1.34,0.65,3.078-0.042,3.5-1.66c7.659-30.777,27.154-54.367,53.67-67.31
			c1.415-0.697,1.825-2.491,0.91-3.74c-19.002-25.756-25.563-53.151-19.19-84c0.317-1.517-0.839-2.949-2.33-3.01
			c-33.13-1.57-56.359-12.76-77.699-37.4c-0.95-1.11-2.841-1.1-3.78,0c-21.33,24.63-44.561,35.82-77.69,37.4
			c-1.479,0.06-2.663,1.452-2.34,3.01c6.547,31.56-0.681,58.912-19.189,84C24.78,128.824,25.203,130.616,26.61,131.31z
			 M171.507,85.427h1.541c4.425,0,8.024,3.6,8.024,8.025v29.119c0,4.425-3.6,8.025-8.024,8.025h-1.541
			c-1.175,0-2.13-0.956-2.13-2.13c0-0.848,0.001-40.883,0.001-40.91C169.378,86.383,170.333,85.427,171.507,85.427z M158.865,94.816
			h5.513l0,26.396h-5.513V94.816z M82.113,130.597h-1.54c-4.425,0-8.025-3.6-8.025-8.025V93.453c0-4.425,3.601-8.025,8.025-8.025
			h1.54c1.175,0,2.13,0.956,2.13,2.13c0,1.055,0,38.118,0,40.91C84.243,129.641,83.288,130.597,82.113,130.597z M94.756,121.212
			h-5.514V94.816h5.514V121.212z"/>
		<path d="M141.05,211.54c-1.412,0.021-2.479,1.213-2.44,2.55c0.03,1.35,1.15,2.45,2.5,2.45c0.021,0,0.04,0,0.061-0.01
			c1.37-0.03,2.47-1.17,2.439-2.55C143.581,212.609,142.42,211.52,141.05,211.54z"/>
	</g>
</g>
</svg>
